HIERARCHY
ROOT hip
{
	OFFSET 0.000000 0.000000 0.000000
	CHANNELS 6 Xposition Yposition Zposition Xrotation Zrotation Yrotation 
	JOINT abdomen
	{
		OFFSET 0.000000 3.422050 0.000000
		CHANNELS 3 Xrotation Zrotation Yrotation 
		JOINT chest
		{
			OFFSET 0.000000 8.486693 -0.684411
			CHANNELS 3 Xrotation Zrotation Yrotation 
			JOINT neck
			{
				OFFSET 0.000000 10.266162 -0.273764
				CHANNELS 3 Xrotation Zrotation Yrotation 
				JOINT head
				{
					OFFSET 0.000000 3.148285 0.000000
					CHANNELS 3 Xrotation Zrotation Yrotation 
					End Site
					{
						OFFSET 0.000000 3.148289 0.000000
					}
				}
			}
			JOINT lCollar
			{
				OFFSET 3.422053 6.707223 -0.821293
				CHANNELS 3 Yrotation Zrotation Xrotation 
				JOINT lShldr
				{
					OFFSET 3.285171 0.000000 0.000000
					CHANNELS 3 Zrotation Yrotation Xrotation 
					JOINT lForeArm
					{
						OFFSET 10.129278 0.000000 0.000000
						CHANNELS 3 Yrotation Zrotation Xrotation 
						JOINT lHand
						{
							OFFSET 8.486692 0.000000 0.000000
							CHANNELS 3 Zrotation Yrotation Xrotation 
							End Site
							{
								OFFSET 4.106464 0.000000 0.000000
							}
						}
					}
				}
			}
			JOINT rCollar
			{
				OFFSET -3.558935 6.707223 -0.821293
				CHANNELS 3 Yrotation Zrotation Xrotation 
				JOINT rShldr
				{
					OFFSET -3.148289 0.000000 0.000000
					CHANNELS 3 Zrotation Yrotation Xrotation 
					JOINT rForeArm
					{
						OFFSET -10.266159 0.000000 0.000000
						CHANNELS 3 Yrotation Zrotation Xrotation 
						JOINT rHand
						{
							OFFSET -8.349810 0.000000 0.000000
							CHANNELS 3 Zrotation Yrotation Xrotation 
							End Site
							{
								OFFSET -4.106464 0.000000 0.000000
							}
						}
					}
				}
			}
		}
	}
	JOINT lThigh
	{
		OFFSET 5.338403 -1.642589 1.368821
		CHANNELS 3 Xrotation Zrotation Yrotation 
		JOINT lShin
		{
			OFFSET -2.053232 -20.121670 0.000000
			CHANNELS 3 Xrotation Zrotation Yrotation 
			JOINT lFoot
			{
				OFFSET 0.000000 -19.300380 -1.231939
				CHANNELS 3 Xrotation Yrotation Zrotation 
				End Site
				{
					OFFSET 0.000000 -2.463878 4.653993
				}
			}
		}
	}
	JOINT rThigh
	{
		OFFSET -5.338403 -1.642589 1.368821
		CHANNELS 3 Xrotation Zrotation Yrotation 
		JOINT rShin
		{
			OFFSET 2.053232 -20.121670 0.000000
			CHANNELS 3 Xrotation Zrotation Yrotation 
			JOINT rFoot
			{
				OFFSET 0.000000 -19.300380 -1.231939
				CHANNELS 3 Xrotation Yrotation Zrotation 
				End Site
				{
					OFFSET 0.000000 -2.463878 4.653993
				}
			}
		}
	}
}
MOTION
Frames: 18
Frame Time: 0.049989
0.000000 4.831345 -5.313606 -90.201981 0.000000 0.000000 7.385242 0.000000 0.000000 22.064547 -0.120632 -0.637164 9.635889 -8.370886 -0.047351 -0.004196 9.999074 35.997082 -1.112958 -19.748125 -12.971776 -59.494282 22.227772 4.619605 -45.160755 6.007041 32.742123 -9.334359 3.932429 26.498043 0.634417 19.460424 -12.677971 60.060123 -22.167763 4.691935 45.711391 -5.880574 32.858131 8.866522 -5.325268 24.898903 -39.650452 13.292201 -17.977831 4.929059 -47.714710 38.063824 27.492855 7.781609 7.740297 -39.714668 -10.289801 17.723934 19.998632 43.604256 -42.874985 27.492508 -7.785854 -7.742918 
0.000000 4.831345 -5.313606 -90.402069 0.000000 0.000000 8.233427 0.000000 0.000000 20.869709 -0.120663 -0.637185 9.706660 -8.300730 -0.052088 -0.004196 9.999074 35.997086 -0.726090 -19.830013 -12.458051 -59.494282 22.227772 4.619605 -45.160755 6.007041 32.742123 -9.332591 3.940401 26.479609 0.256373 19.519484 -12.170539 60.060123 -22.167763 4.691935 45.711391 -5.880574 32.858131 8.879467 -5.227477 25.101622 -39.650452 13.292201 -17.977831 5.199340 -47.670246 37.842976 27.492855 7.781609 7.740297 -39.714668 -10.289801 17.723934 20.409275 43.785374 -42.586731 27.492508 -7.785854 -7.742918 
0.000000 4.831345 -5.313606 -90.602196 0.000000 0.000000 9.082358 0.000000 0.000000 19.672775 -0.120694 -0.637205 9.777417 -8.230560 -0.056738 -0.004196 9.999073 35.997078 -0.338125 -19.908651 -11.943308 -59.494282 22.227772 4.619605 -45.160755 6.007041 32.742123 -9.330822 3.948372 26.461164 -0.122474 19.575390 -11.662351 60.060116 -22.167761 4.691936 45.711391 -5.880574 32.858131 8.892756 -5.129724 25.304342 -39.650452 13.292201 -17.977831 5.469145 -47.625076 37.622623 27.492855 7.781609 7.740297 -39.714668 -10.289801 17.723934 20.822479 43.965034 -42.295776 27.492508 -7.785854 -7.742918 
0.000000 4.831345 -5.313606 -90.802315 0.000000 0.000000 9.931945 0.000000 0.000000 18.474003 -0.120726 -0.637225 9.848160 -8.160380 -0.061299 -0.004196 9.999073 35.997082 0.050883 -19.984032 -11.427601 -59.494282 22.227772 4.619605 -45.160755 6.007041 32.742123 -9.329061 3.956345 26.442736 -0.502073 19.628145 -11.153458 60.060123 -22.167763 4.691935 45.711391 -5.880574 32.858131 8.906391 -5.032013 25.507065 -39.650452 13.292201 -17.977831 5.738466 -47.579216 37.402767 27.492855 7.781609 7.740297 -39.714668 -10.289801 17.723934 21.238251 44.143185 -42.002106 27.492508 -7.785854 -7.742918 
0.000000 4.831345 -5.313606 -91.002434 0.000000 0.000000 10.782097 0.000000 0.000000 17.273642 -0.120759 -0.637245 9.918894 -8.090192 -0.065772 -0.004196 9.999073 35.997078 0.440884 -20.056129 -10.910981 -59.494282 22.227772 4.619605 -45.160755 6.007041 32.742123 -9.327299 3.964318 26.424295 -0.882371 19.677732 -10.643917 60.060123 -22.167763 4.691935 45.711391 -5.880574 32.858131 8.920373 -4.934349 25.709793 -39.650452 13.292201 -17.977831 6.007292 -47.532654 37.183422 27.492855 7.781609 7.740297 -39.714668 -10.289801 17.723934 21.656599 44.319813 -41.705708 27.492508 -7.785854 -7.742918 
0.000000 4.831345 -5.313606 -91.202583 0.000000 0.000000 11.632712 0.000000 0.000000 16.071960 -0.120792 -0.637263 9.989614 -8.019989 -0.070157 -0.004196 9.999073 35.997078 0.831821 -20.124939 -10.393510 -59.494282 22.227772 4.619605 -45.160755 6.007041 32.742123 -9.325539 3.972291 26.405861 -1.263317 19.724138 -10.133777 60.060123 -22.167763 4.691935 45.711391 -5.880574 32.858131 8.934699 -4.836729 25.912521 -39.650452 13.292201 -17.977831 6.275621 -47.485390 36.964592 27.492857 7.781610 7.740297 -39.714668 -10.289801 17.723934 22.077520 44.494907 -41.406605 27.492508 -7.785854 -7.742918 
0.000000 4.831345 -5.313606 -91.402710 0.000000 0.000000 12.483706 0.000000 0.000000 14.869218 -0.120825 -0.637281 10.060320 -7.949777 -0.074455 -0.004196 9.999073 35.997082 1.223642 -20.190434 -9.875235 -59.494282 22.227772 4.619605 -45.160755 6.007041 32.742123 -9.323780 3.980265 26.387421 -1.644859 19.767363 -9.623091 60.060123 -22.167763 4.691935 45.711391 -5.880574 32.858131 8.949370 -4.739156 26.115253 -39.650452 13.292201 -17.977831 6.543446 -47.437435 36.746277 27.492855 7.781609 7.740297 -39.714668 -10.289801 17.723934 22.501015 44.668415 -41.104759 27.492508 -7.785854 -7.742918 
0.000000 4.831345 -5.313606 -91.602875 0.000000 0.000000 13.334981 0.000000 0.000000 13.665681 -0.120858 -0.637299 10.131018 -7.879557 -0.078664 -0.004196 9.999073 35.997078 1.616289 -20.252604 -9.356214 -59.494282 22.227772 4.619605 -45.160755 6.007041 32.742123 -9.322026 3.988239 26.368984 -2.026942 19.807381 -9.111913 60.060116 -22.167761 4.691936 45.711391 -5.880574 32.858131 8.964388 -4.641636 26.317991 -39.650452 13.292201 -17.977831 6.810760 -47.388798 36.528507 27.492855 7.781609 7.740297 -39.714668 -10.289801 17.723934 22.927082 44.840347 -40.800209 27.492506 -7.785853 -7.742917 
0.000000 4.831345 -5.313606 -91.803024 0.000000 0.000000 14.186444 0.000000 0.000000 12.461610 -0.120892 -0.637315 10.201699 -7.809321 -0.082786 -0.004196 9.999073 35.997082 2.009709 -20.311434 -8.836503 -59.494282 22.227772 4.619605 -45.160755 6.007040 32.742126 -9.320276 3.996215 26.350552 -2.409515 19.844196 -8.600294 60.060123 -22.167763 4.691935 45.711391 -5.880574 32.858131 8.979746 -4.544165 26.520720 -39.650452 13.292201 -17.977831 7.077552 -47.339466 36.311264 27.492853 7.781609 7.740297 -39.714668 -10.289801 17.723934 23.355726 45.010670 -40.492939 27.492510 -7.785854 -7.742918 
0.000000 4.831345 -5.313606 -92.003151 0.000000 0.000000 15.038002 0.000000 0.000000 11.257274 -0.120927 -0.637331 10.272373 -7.739081 -0.086820 -0.004196 9.999073 35.997082 2.403845 -20.366919 -8.316156 -59.494282 22.227772 4.619605 -45.160755 6.007041 32.742123 -9.318527 4.004191 26.332113 -2.792523 19.877792 -8.088290 60.060116 -22.167761 4.691936 45.711391 -5.880574 32.858131 8.995453 -4.446751 26.723461 -39.650452 13.292201 -17.977831 7.343814 -47.289455 36.094563 27.492857 7.781610 7.740297 -39.714668 -10.289801 17.723934 23.786936 45.179340 -40.182938 27.492508 -7.785854 -7.742918 
0.000000 4.831345 -5.313606 -92.203316 0.000000 0.000000 15.889561 0.000000 0.000000 10.052936 -0.120961 -0.637347 10.343034 -7.668829 -0.090766 -0.004196 9.999073 35.997078 2.798640 -20.419046 -7.795237 -59.494282 22.227772 4.619605 -45.160755 6.007041 32.742123 -9.316780 4.012167 26.313677 -3.175913 19.908167 -7.575956 60.060123 -22.167763 4.691935 45.711391 -5.880574 32.858131 9.011499 -4.349391 26.926191 -39.650452 13.292201 -17.977831 7.609545 -47.238766 35.878422 27.492855 7.781609 7.740297 -39.714668 -10.289801 17.723934 24.220728 45.346386 -39.870247 27.492508 -7.785854 -7.742918 
0.000000 4.831345 -5.313606 -92.403465 0.000000 0.000000 16.741022 0.000000 0.000000 8.848866 -0.120996 -0.637361 10.413680 -7.598567 -0.094624 -0.004196 9.999073 35.997082 3.194037 -20.467800 -7.273796 -59.494282 22.227772 4.619605 -45.160755 6.007040 32.742126 -9.315034 4.020143 26.295237 -3.559630 19.935316 -7.063344 60.060123 -22.167763 4.691935 45.711391 -5.880574 32.858131 9.027890 -4.252089 27.128927 -39.650452 13.292201 -17.977831 7.874735 -47.187389 35.662834 27.492855 7.781609 7.740297 -39.714668 -10.289801 17.723934 24.657078 45.511734 -39.554825 27.492506 -7.785853 -7.742917 
0.000000 4.831345 -5.313606 -92.603600 0.000000 0.000000 17.592300 0.000000 0.000000 7.645328 -0.121032 -0.637375 10.484314 -7.528295 -0.098394 -0.004196 9.999074 35.997082 3.589977 -20.513178 -6.751896 -59.494282 22.227772 4.619605 -45.160755 6.007041 32.742123 -9.313294 4.028121 26.276800 -3.943619 19.959234 -6.550513 60.060123 -22.167763 4.691935 45.711391 -5.880574 32.858131 9.044624 -4.154848 27.331663 -39.650452 13.292201 -17.977831 8.139377 -47.135342 35.447807 27.492853 7.781609 7.740297 -39.714668 -10.289801 17.723934 25.095982 45.675373 -39.236694 27.492510 -7.785854 -7.742918 
0.000000 4.831345 -5.313606 -92.803734 0.000000 0.000000 18.443293 0.000000 0.000000 6.442586 -0.121067 -0.637388 10.554937 -7.458013 -0.102077 -0.004195 9.999073 35.997078 3.986404 -20.555166 -6.229592 -59.494282 22.227772 4.619605 -45.160755 6.007041 32.742123 -9.311553 4.036098 26.258360 -4.327826 19.979919 -6.037514 60.060123 -22.167763 4.691935 45.711391 -5.880574 32.858131 9.061701 -4.057668 27.534397 -39.650452 13.292201 -17.977831 8.403468 -47.082615 35.233345 27.492857 7.781610 7.740297 -39.714668 -10.289801 17.723934 25.537445 45.837299 -38.915859 27.492508 -7.785854 -7.742918 
0.000000 4.831345 -5.313606 -93.003883 0.000000 0.000000 19.293907 0.000000 0.000000 5.240904 -0.121103 -0.637400 10.625552 -7.387725 -0.105672 -0.004196 9.999073 35.997078 4.383259 -20.593761 -5.706943 -59.494282 22.227772 4.619605 -45.160755 6.007041 32.742123 -9.309818 4.044077 26.239927 -4.712197 19.997358 -5.524402 60.060116 -22.167761 4.691936 45.711391 -5.880574 32.858131 9.079121 -3.960553 27.737133 -39.650452 13.292201 -17.977831 8.667002 -47.029221 35.019466 27.492855 7.781609 7.740297 -39.714668 -10.289801 17.723934 25.981461 45.997478 -38.592350 27.492508 -7.785854 -7.742918 
0.000000 4.831345 -5.313606 -93.204002 0.000000 0.000000 20.144058 0.000000 0.000000 4.040545 -0.121139 -0.637411 10.696156 -7.317428 -0.109179 -0.004196 9.999073 35.997082 4.780481 -20.628952 -5.184007 -59.494282 22.227772 4.619605 -45.160755 6.007041 32.742123 -9.308085 4.052056 26.221491 -5.096676 20.011568 -5.011234 60.060123 -22.167763 4.691935 45.711391 -5.880574 32.858131 9.096880 -3.863503 27.939863 -39.650452 13.292201 -17.977831 8.929965 -46.975170 34.806175 27.492855 7.781609 7.740297 -39.714668 -10.289801 17.723934 26.428019 46.155895 -38.266144 27.492506 -7.785853 -7.742917 
0.000000 4.831345 -5.313606 -93.404129 0.000000 0.000000 20.993650 0.000000 0.000000 2.841769 -0.121175 -0.637422 10.766747 -7.247122 -0.112599 -0.004195 9.999073 35.997078 5.178016 -20.660744 -4.660846 -59.494282 22.227772 4.619605 -45.160755 6.007040 32.742126 -9.306354 4.060035 26.203049 -5.481209 20.022533 -4.498065 60.060116 -22.167761 4.691936 45.711391 -5.880574 32.858131 9.114980 -3.766521 28.142590 -39.650452 13.292201 -17.977831 9.192355 -46.920444 34.593468 27.492853 7.781609 7.740297 -39.714668 -10.289801 17.723934 26.877102 46.312500 -37.937244 27.492510 -7.785854 -7.742918 
0.000000 4.831345 -5.313606 -93.604256 0.000000 0.000000 21.842577 0.000000 0.000000 1.644838 -0.121211 -0.637432 10.837328 -7.176808 -0.115931 -0.004196 9.999073 35.997078 5.575801 -20.689129 -4.137519 -59.494282 22.227772 4.619605 -45.160755 6.007041 32.742123 -9.304624 4.068015 26.184614 -5.865741 20.030268 -3.984952 60.060123 -22.167763 4.691935 45.711391 -5.880574 32.858131 9.133423 -3.669609 28.345318 -39.650452 13.292201 -17.977831 9.454169 -46.865047 34.381348 27.492857 7.781610 7.740297 -39.714668 -10.289801 17.723934 27.328711 46.467312 -37.605686 27.492508 -7.785854 -7.742918 
